<?xml version="1.0" standalone="no"?><svg xmlns="http://www.w3.org/2000/svg" viewBox="0 0 1440 320"><path fill="#ffe300" fill-opacity="1" d="M0,256L30,245.3C60,235,120,213,180,202.7C240,192,300,192,360,208C420,224,480,256,540,256C600,256,660,224,720,181.3C780,139,840,85,900,96C960,107,1020,181,1080,197.3C1140,213,1200,171,1260,138.7C1320,107,1380,85,1410,74.7L1440,64L1440,320L1410,320C1380,320,1320,320,1260,320C1200,320,1140,320,1080,320C1020,320,960,320,900,320C840,320,780,320,720,320C660,320,600,320,540,320C480,320,420,320,360,320C300,320,240,320,180,320C120,320,60,320,30,320L0,320Z"></path></svg>